<svg width="279" height="63" viewBox="0 0 279 63" fill="none" xmlns="http://www.w3.org/2000/svg">
<path d="M51.6729 5.09502L67.6977 32.0905L67.7979 32.2592L67.9289 32.4053L79.0037 44.7479C78.6651 45.0741 78.266 45.4516 77.8127 45.869C76.2142 47.3407 73.9533 49.2966 71.301 51.2391C65.8873 55.2038 59.2674 58.7927 53.442 58.6638C47.4657 58.5316 40.5281 55.2744 34.8862 51.8325C32.1084 50.1379 29.7254 48.4493 28.0373 47.1843C27.6119 46.8656 27.2314 46.5743 26.9003 46.317L37.9897 32.3111L38.1176 32.1496L38.2098 31.9655L51.6729 5.09502Z" stroke="white" stroke-width="4"/>
<path d="M29.4854 5.09502L45.5102 32.0905L45.6104 32.2592L45.7414 32.4053L56.8162 44.7479C56.4776 45.0741 56.0785 45.4516 55.6252 45.869C54.0267 47.3407 51.7658 49.2966 49.1135 51.2391C43.6998 55.2038 37.0799 58.7927 31.2545 58.6638C25.2782 58.5316 18.3406 55.2744 12.6987 51.8325C9.92087 50.1379 7.53794 48.4493 5.84976 47.1843C5.42444 46.8656 5.04385 46.5743 4.71283 46.317L15.8022 32.3111L15.9301 32.1496L16.0223 31.9655L29.4854 5.09502Z" stroke="white" stroke-width="4"/>
<path d="M89.142 4.51027H93.492V22.3903H103.872V26.5903H89.142V4.51027ZM115.396 15.5803C115.396 14.0603 115.686 12.6203 116.266 11.2603C116.846 9.90027 117.646 8.70027 118.666 7.66027C119.706 6.60027 120.906 5.77027 122.266 5.17027C123.626 4.57027 125.086 4.27027 126.646 4.27027C128.186 4.27027 129.636 4.57027 130.996 5.17027C132.356 5.77027 133.556 6.60027 134.596 7.66027C135.656 8.70027 136.476 9.90027 137.056 11.2603C137.656 12.6203 137.956 14.0603 137.956 15.5803C137.956 17.1403 137.656 18.6003 137.056 19.9603C136.476 21.3203 135.656 22.5203 134.596 23.5603C133.556 24.5803 132.356 25.3803 130.996 25.9603C129.636 26.5403 128.186 26.8303 126.646 26.8303C125.086 26.8303 123.626 26.5403 122.266 25.9603C120.906 25.3803 119.706 24.5803 118.666 23.5603C117.646 22.5203 116.846 21.3203 116.266 19.9603C115.686 18.6003 115.396 17.1403 115.396 15.5803ZM119.896 15.5803C119.896 16.5603 120.066 17.4803 120.406 18.3403C120.766 19.1803 121.256 19.9303 121.876 20.5903C122.516 21.2303 123.246 21.7303 124.066 22.0903C124.906 22.4503 125.816 22.6303 126.796 22.6303C127.736 22.6303 128.606 22.4503 129.406 22.0903C130.226 21.7303 130.936 21.2303 131.536 20.5903C132.136 19.9303 132.606 19.1803 132.946 18.3403C133.286 17.4803 133.456 16.5603 133.456 15.5803C133.456 14.5803 133.276 13.6503 132.916 12.7903C132.576 11.9303 132.096 11.1803 131.476 10.5403C130.876 9.88027 130.166 9.37027 129.346 9.01027C128.526 8.65027 127.636 8.47027 126.676 8.47027C125.716 8.47027 124.826 8.65027 124.006 9.01027C123.186 9.37027 122.466 9.88027 121.846 10.5403C121.226 11.1803 120.746 11.9303 120.406 12.7903C120.066 13.6503 119.896 14.5803 119.896 15.5803ZM149.031 4.51027H163.911V8.71027H158.541V26.5903H154.191V8.71027H149.031V4.51027ZM181.009 18.4303C181.009 19.1303 181.219 19.8003 181.639 20.4403C182.059 21.0803 182.609 21.6003 183.289 22.0003C183.989 22.4003 184.749 22.6003 185.569 22.6003C186.469 22.6003 187.269 22.4003 187.969 22.0003C188.669 21.6003 189.219 21.0803 189.619 20.4403C190.039 19.8003 190.249 19.1303 190.249 18.4303V4.51027H194.539V18.5203C194.539 20.1403 194.139 21.5803 193.339 22.8403C192.539 24.0803 191.459 25.0603 190.099 25.7803C188.739 26.4803 187.229 26.8303 185.569 26.8303C183.929 26.8303 182.429 26.4803 181.069 25.7803C179.729 25.0603 178.659 24.0803 177.859 22.8403C177.059 21.5803 176.659 20.1403 176.659 18.5203V4.51027H181.009V18.4303ZM220.575 9.85027C219.735 9.39027 218.875 9.01027 217.995 8.71027C217.135 8.41027 216.325 8.26027 215.565 8.26027C214.625 8.26027 213.885 8.45027 213.345 8.83027C212.805 9.21027 212.535 9.78027 212.535 10.5403C212.535 11.0603 212.735 11.5303 213.135 11.9503C213.555 12.3503 214.085 12.7103 214.725 13.0303C215.385 13.3503 216.065 13.6403 216.765 13.9003C217.405 14.1403 218.035 14.4303 218.655 14.7703C219.295 15.0903 219.865 15.5003 220.365 16.0003C220.865 16.4803 221.265 17.0903 221.565 17.8303C221.865 18.5503 222.015 19.4403 222.015 20.5003C222.015 21.6203 221.725 22.6603 221.145 23.6203C220.565 24.5803 219.715 25.3603 218.595 25.9603C217.475 26.5403 216.095 26.8303 214.455 26.8303C213.615 26.8303 212.755 26.7503 211.875 26.5903C211.015 26.4103 210.165 26.1503 209.325 25.8103C208.485 25.4503 207.675 25.0003 206.895 24.4603L208.815 21.0703C209.335 21.4503 209.895 21.7903 210.495 22.0903C211.115 22.3703 211.735 22.5903 212.355 22.7503C212.975 22.9103 213.545 22.9903 214.065 22.9903C214.585 22.9903 215.105 22.9203 215.625 22.7803C216.165 22.6203 216.605 22.3603 216.945 22.0003C217.305 21.6403 217.485 21.1403 217.485 20.5003C217.485 20.0603 217.335 19.6603 217.035 19.3003C216.755 18.9403 216.365 18.6103 215.865 18.3103C215.385 18.0103 214.855 17.7503 214.275 17.5303C213.595 17.2703 212.895 16.9703 212.175 16.6303C211.455 16.2903 210.775 15.8803 210.135 15.4003C209.515 14.9003 209.005 14.2903 208.605 13.5703C208.225 12.8303 208.035 11.9303 208.035 10.8703C208.035 9.59027 208.315 8.48027 208.875 7.54027C209.455 6.60027 210.265 5.86027 211.305 5.32027C212.345 4.76027 213.545 4.45027 214.905 4.39027C216.685 4.39027 218.125 4.60027 219.225 5.02027C220.345 5.44027 221.345 5.94027 222.225 6.52027L220.575 9.85027ZM87.417 43.1903H99.817V46.6903H95.342V61.5903H91.717V46.6903H87.417V43.1903ZM102.74 61.5903V41.8653H106.165V52.8653L106.14 52.4403C106.524 51.7569 107.065 51.2069 107.765 50.7903C108.465 50.3569 109.324 50.1403 110.34 50.1403C111.374 50.1403 112.232 50.4486 112.915 51.0653C113.615 51.6653 113.974 52.4486 113.99 53.4153V61.5903H110.49V54.7153C110.474 54.2319 110.34 53.8486 110.09 53.5653C109.857 53.2653 109.457 53.1153 108.89 53.1153C108.357 53.1153 107.89 53.2903 107.49 53.6403C107.09 53.9903 106.782 54.4653 106.565 55.0653C106.349 55.6653 106.24 56.3569 106.24 57.1403V61.5903H102.74ZM122.184 61.8903C121.168 61.8903 120.243 61.6903 119.409 61.2903C118.593 60.8736 117.943 60.2403 117.459 59.3903C116.976 58.5403 116.734 57.4569 116.734 56.1403C116.734 54.9069 116.984 53.8403 117.484 52.9403C117.984 52.0403 118.643 51.3486 119.459 50.8653C120.276 50.3653 121.143 50.1153 122.059 50.1153C123.143 50.1153 123.959 50.2986 124.509 50.6653C125.076 51.0153 125.543 51.4069 125.909 51.8403L125.759 52.2653L126.084 50.6653H129.334V61.5903H125.834V59.2153L126.109 59.9653C126.076 59.9653 125.976 60.0653 125.809 60.2653C125.643 60.4486 125.393 60.6736 125.059 60.9403C124.743 61.1903 124.343 61.4069 123.859 61.5903C123.393 61.7903 122.834 61.8903 122.184 61.8903ZM123.184 59.0403C123.601 59.0403 123.976 58.9819 124.309 58.8653C124.643 58.7319 124.934 58.5486 125.184 58.3153C125.434 58.0653 125.651 57.7569 125.834 57.3903V54.7153C125.701 54.3486 125.501 54.0403 125.234 53.7903C124.968 53.5236 124.651 53.3236 124.284 53.1903C123.918 53.0403 123.509 52.9653 123.059 52.9653C122.559 52.9653 122.093 53.0986 121.659 53.3653C121.243 53.6153 120.909 53.9653 120.659 54.4153C120.409 54.8653 120.284 55.3819 120.284 55.9653C120.284 56.5486 120.418 57.0736 120.684 57.5403C120.951 58.0069 121.301 58.3736 121.734 58.6403C122.184 58.9069 122.668 59.0403 123.184 59.0403ZM132.941 50.6653H136.441V61.5903H132.941V50.6653ZM132.866 46.7903C132.866 46.2736 133.066 45.8486 133.466 45.5153C133.882 45.1819 134.324 45.0153 134.791 45.0153C135.257 45.0153 135.682 45.1819 136.066 45.5153C136.466 45.8486 136.666 46.2736 136.666 46.7903C136.666 47.3069 136.466 47.7319 136.066 48.0653C135.682 48.3819 135.257 48.5403 134.791 48.5403C134.324 48.5403 133.882 48.3819 133.466 48.0653C133.066 47.7319 132.866 47.3069 132.866 46.7903ZM154.325 43.1903C155.475 43.1903 156.5 43.3403 157.4 43.6403C158.3 43.9236 159.05 44.3403 159.65 44.8903C160.267 45.4236 160.733 46.0736 161.05 46.8403C161.367 47.5903 161.525 48.4403 161.525 49.3903C161.525 50.1403 161.408 50.8903 161.175 51.6403C160.958 52.3903 160.592 53.0736 160.075 53.6903C159.575 54.3069 158.908 54.8069 158.075 55.1903C157.242 55.5569 156.208 55.7403 154.975 55.7403H152.375V61.5903H148.75V43.1903H154.325ZM154.95 52.2403C155.5 52.2403 155.958 52.1486 156.325 51.9653C156.692 51.7819 156.975 51.5486 157.175 51.2653C157.392 50.9819 157.542 50.6903 157.625 50.3903C157.725 50.0736 157.775 49.7819 157.775 49.5153C157.775 49.3153 157.742 49.0653 157.675 48.7653C157.625 48.4486 157.508 48.1319 157.325 47.8153C157.142 47.4986 156.858 47.2319 156.475 47.0153C156.108 46.7986 155.608 46.6903 154.975 46.6903H152.375V52.2403H154.95ZM158.35 54.4903L162.9 61.5903H158.675L154.025 54.5903L158.35 54.4903ZM170.2 61.8903C168.867 61.8903 167.734 61.6403 166.8 61.1403C165.884 60.6403 165.184 59.9486 164.7 59.0653C164.217 58.1819 163.975 57.1653 163.975 56.0153C163.975 54.9153 164.259 53.9236 164.825 53.0403C165.392 52.1569 166.15 51.4569 167.1 50.9403C168.05 50.4069 169.109 50.1403 170.275 50.1403C171.842 50.1403 173.125 50.5986 174.125 51.5153C175.142 52.4153 175.8 53.7236 176.1 55.4403L167.6 58.1403L166.825 56.2403L172.975 54.1653L172.25 54.4903C172.117 54.0569 171.875 53.6819 171.525 53.3653C171.192 53.0319 170.684 52.8653 170 52.8653C169.484 52.8653 169.025 52.9903 168.625 53.2403C168.242 53.4736 167.942 53.8153 167.725 54.2653C167.525 54.6986 167.425 55.2153 167.425 55.8153C167.425 56.4986 167.55 57.0736 167.8 57.5403C168.05 57.9903 168.392 58.3319 168.825 58.5653C169.259 58.7986 169.742 58.9153 170.275 58.9153C170.659 58.9153 171.025 58.8486 171.375 58.7153C171.742 58.5819 172.1 58.4069 172.45 58.1903L174 60.7903C173.417 61.1236 172.784 61.3903 172.1 61.5903C171.434 61.7903 170.8 61.8903 170.2 61.8903ZM182.194 61.8153C181.294 61.8153 180.452 61.6569 179.669 61.3403C178.902 61.0236 178.252 60.5819 177.719 60.0153L179.169 58.0903C179.702 58.5736 180.194 58.9236 180.644 59.1403C181.11 59.3403 181.527 59.4403 181.894 59.4403C182.177 59.4403 182.427 59.4153 182.644 59.3653C182.877 59.2986 183.06 59.2069 183.194 59.0903C183.327 58.9569 183.394 58.7903 183.394 58.5903C183.394 58.3069 183.277 58.0819 183.044 57.9153C182.827 57.7486 182.544 57.6153 182.194 57.5153C181.844 57.3986 181.469 57.2819 181.069 57.1653C180.069 56.8486 179.344 56.3903 178.894 55.7903C178.46 55.1736 178.244 54.5069 178.244 53.7903C178.244 53.2403 178.385 52.6903 178.669 52.1403C178.969 51.5736 179.435 51.1069 180.069 50.7403C180.719 50.3569 181.552 50.1653 182.569 50.1653C183.485 50.1653 184.26 50.2569 184.894 50.4403C185.527 50.6236 186.127 50.9236 186.694 51.3403L185.369 53.3903C185.052 53.1403 184.694 52.9319 184.294 52.7653C183.91 52.5819 183.552 52.4819 183.219 52.4653C182.919 52.4486 182.66 52.4819 182.444 52.5653C182.244 52.6486 182.085 52.7569 181.969 52.8903C181.852 53.0236 181.794 53.1653 181.794 53.3153C181.777 53.6319 181.894 53.8819 182.144 54.0653C182.41 54.2486 182.744 54.3903 183.144 54.4903C183.544 54.5903 183.935 54.7069 184.319 54.8403C184.852 55.0069 185.31 55.2319 185.694 55.5153C186.077 55.7986 186.369 56.1403 186.569 56.5403C186.785 56.9236 186.894 57.3903 186.894 57.9403C186.894 58.6069 186.719 59.2403 186.369 59.8403C186.035 60.4236 185.519 60.8986 184.819 61.2653C184.135 61.6319 183.26 61.8153 182.194 61.8153ZM190.85 45.8653H194.35V50.6153H197V53.3403H194.35V61.5903H190.85V53.3403H189.15V50.6153H190.85V45.8653ZM204.264 61.8903C203.248 61.8903 202.323 61.6903 201.489 61.2903C200.673 60.8736 200.023 60.2403 199.539 59.3903C199.056 58.5403 198.814 57.4569 198.814 56.1403C198.814 54.9069 199.064 53.8403 199.564 52.9403C200.064 52.0403 200.723 51.3486 201.539 50.8653C202.356 50.3653 203.223 50.1153 204.139 50.1153C205.223 50.1153 206.039 50.2986 206.589 50.6653C207.156 51.0153 207.623 51.4069 207.989 51.8403L207.839 52.2653L208.164 50.6653H211.414V61.5903H207.914V59.2153L208.189 59.9653C208.156 59.9653 208.056 60.0653 207.889 60.2653C207.723 60.4486 207.473 60.6736 207.139 60.9403C206.823 61.1903 206.423 61.4069 205.939 61.5903C205.473 61.7903 204.914 61.8903 204.264 61.8903ZM205.264 59.0403C205.681 59.0403 206.056 58.9819 206.389 58.8653C206.723 58.7319 207.014 58.5486 207.264 58.3153C207.514 58.0653 207.731 57.7569 207.914 57.3903V54.7153C207.781 54.3486 207.581 54.0403 207.314 53.7903C207.048 53.5236 206.731 53.3236 206.364 53.1903C205.998 53.0403 205.589 52.9653 205.139 52.9653C204.639 52.9653 204.173 53.0986 203.739 53.3653C203.323 53.6153 202.989 53.9653 202.739 54.4153C202.489 54.8653 202.364 55.3819 202.364 55.9653C202.364 56.5486 202.498 57.0736 202.764 57.5403C203.031 58.0069 203.381 58.3736 203.814 58.6403C204.264 58.9069 204.748 59.0403 205.264 59.0403ZM218.546 62.1153C217.562 62.1153 216.737 61.8153 216.071 61.2153C215.404 60.5986 215.054 59.8069 215.021 58.8403V50.6653H218.521V57.5403C218.554 58.0236 218.679 58.4153 218.896 58.7153C219.112 58.9986 219.479 59.1403 219.996 59.1403C220.512 59.1403 220.954 58.9653 221.321 58.6153C221.704 58.2653 221.996 57.7903 222.196 57.1903C222.412 56.5736 222.521 55.8819 222.521 55.1153V50.6653H226.021V61.5903H222.846L222.571 59.5903L222.621 59.8153C222.371 60.2653 222.054 60.6653 221.671 61.0153C221.287 61.3653 220.829 61.6319 220.296 61.8153C219.779 62.0153 219.196 62.1153 218.546 62.1153ZM232.77 50.6653L233.095 53.6653L233.02 53.2153C233.337 52.5653 233.77 52.0153 234.32 51.5653C234.87 51.0986 235.412 50.7403 235.945 50.4903C236.495 50.2403 236.912 50.1153 237.195 50.1153L237.02 53.6153C236.204 53.5153 235.504 53.6486 234.92 54.0153C234.337 54.3819 233.887 54.8653 233.57 55.4653C233.254 56.0653 233.095 56.6819 233.095 57.3153V61.5903H229.62V50.6653H232.77ZM244.108 61.8903C243.091 61.8903 242.166 61.6903 241.333 61.2903C240.516 60.8736 239.866 60.2403 239.383 59.3903C238.9 58.5403 238.658 57.4569 238.658 56.1403C238.658 54.9069 238.908 53.8403 239.408 52.9403C239.908 52.0403 240.566 51.3486 241.383 50.8653C242.2 50.3653 243.066 50.1153 243.983 50.1153C245.066 50.1153 245.883 50.2986 246.433 50.6653C247 51.0153 247.466 51.4069 247.833 51.8403L247.683 52.2653L248.008 50.6653H251.258V61.5903H247.758V59.2153L248.033 59.9653C248 59.9653 247.9 60.0653 247.733 60.2653C247.566 60.4486 247.316 60.6736 246.983 60.9403C246.666 61.1903 246.266 61.4069 245.783 61.5903C245.316 61.7903 244.758 61.8903 244.108 61.8903ZM245.108 59.0403C245.525 59.0403 245.9 58.9819 246.233 58.8653C246.566 58.7319 246.858 58.5486 247.108 58.3153C247.358 58.0653 247.575 57.7569 247.758 57.3903V54.7153C247.625 54.3486 247.425 54.0403 247.158 53.7903C246.891 53.5236 246.575 53.3236 246.208 53.1903C245.841 53.0403 245.433 52.9653 244.983 52.9653C244.483 52.9653 244.016 53.0986 243.583 53.3653C243.166 53.6153 242.833 53.9653 242.583 54.4153C242.333 54.8653 242.208 55.3819 242.208 55.9653C242.208 56.5486 242.341 57.0736 242.608 57.5403C242.875 58.0069 243.225 58.3736 243.658 58.6403C244.108 58.9069 244.591 59.0403 245.108 59.0403ZM258.039 50.6653L258.314 52.6153L258.264 52.4403C258.648 51.7569 259.189 51.2069 259.889 50.7903C260.589 50.3569 261.448 50.1403 262.464 50.1403C263.498 50.1403 264.356 50.4486 265.039 51.0653C265.739 51.6653 266.098 52.4486 266.114 53.4153V61.5903H262.614V54.7153C262.598 54.2319 262.464 53.8486 262.214 53.5653C261.981 53.2653 261.581 53.1153 261.014 53.1153C260.481 53.1153 260.014 53.2903 259.614 53.6403C259.214 53.9903 258.906 54.4653 258.689 55.0653C258.473 55.6653 258.364 56.3569 258.364 57.1403V61.5903H254.864V50.6653H258.039ZM270.733 45.8653H274.233V50.6153H276.883V53.3403H274.233V61.5903H270.733V53.3403H269.033V50.6153H270.733V45.8653Z" fill="white"/>
</svg>
