<svg width="278" height="63" viewBox="0 0 278 63" fill="none" xmlns="http://www.w3.org/2000/svg">
<path d="M51.1665 5.18285L67.1914 32.1783L67.2915 32.3471L67.4226 32.4931L78.4974 44.8358C78.1588 45.1619 77.7597 45.5395 77.3063 45.9569C75.7078 47.4285 73.447 49.3844 70.7946 51.3269C65.381 55.2916 58.7611 58.8805 52.9357 58.7516C46.9594 58.6194 40.0217 55.3622 34.3798 51.9203C31.602 50.2257 29.2191 48.5372 27.5309 47.2722C27.1056 46.9535 26.725 46.6621 26.394 46.4049L37.4834 32.3989L37.6112 32.2375L37.7035 32.0533L51.1665 5.18285Z" stroke="#B28451" stroke-width="4"/>
<path d="M28.979 5.18285L45.0039 32.1783L45.104 32.3471L45.2351 32.4931L56.3099 44.8358C55.9713 45.1619 55.5722 45.5395 55.1188 45.9569C53.5203 47.4285 51.2595 49.3844 48.6071 51.3269C43.1935 55.2916 36.5736 58.8805 30.7482 58.7516C24.7719 58.6194 17.8342 55.3622 12.1923 51.9203C9.41452 50.2257 7.03159 48.5372 5.34341 47.2722C4.91809 46.9535 4.5375 46.6621 4.20648 46.4049L15.2959 32.3989L15.4237 32.2375L15.516 32.0533L28.979 5.18285Z" stroke="#B28451" stroke-width="4"/>
<path d="M88.6356 4.5981H92.9856V22.4781H103.366V26.6781H88.6356V4.5981ZM114.889 15.6681C114.889 14.1481 115.179 12.7081 115.759 11.3481C116.339 9.9881 117.139 8.7881 118.159 7.7481C119.199 6.6881 120.399 5.8581 121.759 5.2581C123.119 4.6581 124.579 4.3581 126.139 4.3581C127.679 4.3581 129.129 4.6581 130.489 5.2581C131.849 5.8581 133.049 6.6881 134.089 7.7481C135.149 8.7881 135.969 9.9881 136.549 11.3481C137.149 12.7081 137.449 14.1481 137.449 15.6681C137.449 17.2281 137.149 18.6881 136.549 20.0481C135.969 21.4081 135.149 22.6081 134.089 23.6481C133.049 24.6681 131.849 25.4681 130.489 26.0481C129.129 26.6281 127.679 26.9181 126.139 26.9181C124.579 26.9181 123.119 26.6281 121.759 26.0481C120.399 25.4681 119.199 24.6681 118.159 23.6481C117.139 22.6081 116.339 21.4081 115.759 20.0481C115.179 18.6881 114.889 17.2281 114.889 15.6681ZM119.389 15.6681C119.389 16.6481 119.559 17.5681 119.899 18.4281C120.259 19.2681 120.749 20.0181 121.369 20.6781C122.009 21.3181 122.739 21.8181 123.559 22.1781C124.399 22.5381 125.309 22.7181 126.289 22.7181C127.229 22.7181 128.099 22.5381 128.899 22.1781C129.719 21.8181 130.429 21.3181 131.029 20.6781C131.629 20.0181 132.099 19.2681 132.439 18.4281C132.779 17.5681 132.949 16.6481 132.949 15.6681C132.949 14.6681 132.769 13.7381 132.409 12.8781C132.069 12.0181 131.589 11.2681 130.969 10.6281C130.369 9.9681 129.659 9.4581 128.839 9.0981C128.019 8.7381 127.129 8.5581 126.169 8.5581C125.209 8.5581 124.319 8.7381 123.499 9.0981C122.679 9.4581 121.959 9.9681 121.339 10.6281C120.719 11.2681 120.239 12.0181 119.899 12.8781C119.559 13.7381 119.389 14.6681 119.389 15.6681ZM148.524 4.5981H163.404V8.7981H158.034V26.6781H153.684V8.7981H148.524V4.5981ZM180.502 18.5181C180.502 19.2181 180.712 19.8881 181.132 20.5281C181.552 21.1681 182.102 21.6881 182.782 22.0881C183.482 22.4881 184.242 22.6881 185.062 22.6881C185.962 22.6881 186.762 22.4881 187.462 22.0881C188.162 21.6881 188.712 21.1681 189.112 20.5281C189.532 19.8881 189.742 19.2181 189.742 18.5181V4.5981H194.032V18.6081C194.032 20.2281 193.632 21.6681 192.832 22.9281C192.032 24.1681 190.952 25.1481 189.592 25.8681C188.232 26.5681 186.722 26.9181 185.062 26.9181C183.422 26.9181 181.922 26.5681 180.562 25.8681C179.222 25.1481 178.152 24.1681 177.352 22.9281C176.552 21.6681 176.152 20.2281 176.152 18.6081V4.5981H180.502V18.5181ZM220.068 9.9381C219.228 9.4781 218.368 9.0981 217.488 8.7981C216.628 8.4981 215.818 8.3481 215.058 8.3481C214.118 8.3481 213.378 8.5381 212.838 8.9181C212.298 9.2981 212.028 9.8681 212.028 10.6281C212.028 11.1481 212.228 11.6181 212.628 12.0381C213.048 12.4381 213.578 12.7981 214.218 13.1181C214.878 13.4381 215.558 13.7281 216.258 13.9881C216.898 14.2281 217.528 14.5181 218.148 14.8581C218.788 15.1781 219.358 15.5881 219.858 16.0881C220.358 16.5681 220.758 17.1781 221.058 17.9181C221.358 18.6381 221.508 19.5281 221.508 20.5881C221.508 21.7081 221.218 22.7481 220.638 23.7081C220.058 24.6681 219.208 25.4481 218.088 26.0481C216.968 26.6281 215.588 26.9181 213.948 26.9181C213.108 26.9181 212.248 26.8381 211.368 26.6781C210.508 26.4981 209.658 26.2381 208.818 25.8981C207.978 25.5381 207.168 25.0881 206.388 24.5481L208.308 21.1581C208.828 21.5381 209.388 21.8781 209.988 22.1781C210.608 22.4581 211.228 22.6781 211.848 22.8381C212.468 22.9981 213.038 23.0781 213.558 23.0781C214.078 23.0781 214.598 23.0081 215.118 22.8681C215.658 22.7081 216.098 22.4481 216.438 22.0881C216.798 21.7281 216.978 21.2281 216.978 20.5881C216.978 20.1481 216.828 19.7481 216.528 19.3881C216.248 19.0281 215.858 18.6981 215.358 18.3981C214.878 18.0981 214.348 17.8381 213.768 17.6181C213.088 17.3581 212.388 17.0581 211.668 16.7181C210.948 16.3781 210.268 15.9681 209.628 15.4881C209.008 14.9881 208.498 14.3781 208.098 13.6581C207.718 12.9181 207.528 12.0181 207.528 10.9581C207.528 9.6781 207.808 8.5681 208.368 7.6281C208.948 6.6881 209.758 5.9481 210.798 5.4081C211.838 4.8481 213.038 4.5381 214.398 4.4781C216.178 4.4781 217.618 4.6881 218.718 5.1081C219.838 5.5281 220.838 6.0281 221.718 6.6081L220.068 9.9381ZM86.9106 43.2781H99.3106V46.7781H94.8356V61.6781H91.2106V46.7781H86.9106V43.2781ZM102.234 61.6781V41.9531H105.659V52.9531L105.634 52.5281C106.017 51.8448 106.559 51.2948 107.259 50.8781C107.959 50.4448 108.817 50.2281 109.834 50.2281C110.867 50.2281 111.726 50.5364 112.409 51.1531C113.109 51.7531 113.467 52.5364 113.484 53.5031V61.6781H109.984V54.8031C109.967 54.3198 109.834 53.9364 109.584 53.6531C109.351 53.3531 108.951 53.2031 108.384 53.2031C107.851 53.2031 107.384 53.3781 106.984 53.7281C106.584 54.0781 106.276 54.5531 106.059 55.1531C105.842 55.7531 105.734 56.4448 105.734 57.2281V61.6781H102.234ZM121.678 61.9781C120.661 61.9781 119.736 61.7781 118.903 61.3781C118.086 60.9614 117.436 60.3281 116.953 59.4781C116.469 58.6281 116.228 57.5448 116.228 56.2281C116.228 54.9948 116.478 53.9281 116.978 53.0281C117.478 52.1281 118.136 51.4364 118.953 50.9531C119.769 50.4531 120.636 50.2031 121.553 50.2031C122.636 50.2031 123.453 50.3864 124.003 50.7531C124.569 51.1031 125.036 51.4948 125.403 51.9281L125.253 52.3531L125.578 50.7531H128.828V61.6781H125.328V59.3031L125.603 60.0531C125.569 60.0531 125.469 60.1531 125.303 60.3531C125.136 60.5364 124.886 60.7614 124.553 61.0281C124.236 61.2781 123.836 61.4948 123.353 61.6781C122.886 61.8781 122.328 61.9781 121.678 61.9781ZM122.678 59.1281C123.094 59.1281 123.469 59.0698 123.803 58.9531C124.136 58.8198 124.428 58.6364 124.678 58.4031C124.928 58.1531 125.144 57.8448 125.328 57.4781V54.8031C125.194 54.4364 124.994 54.1281 124.728 53.8781C124.461 53.6114 124.144 53.4114 123.778 53.2781C123.411 53.1281 123.003 53.0531 122.553 53.0531C122.053 53.0531 121.586 53.1864 121.153 53.4531C120.736 53.7031 120.403 54.0531 120.153 54.5031C119.903 54.9531 119.778 55.4698 119.778 56.0531C119.778 56.6364 119.911 57.1614 120.178 57.6281C120.444 58.0948 120.794 58.4614 121.228 58.7281C121.678 58.9948 122.161 59.1281 122.678 59.1281ZM132.434 50.7531H135.934V61.6781H132.434V50.7531ZM132.359 46.8781C132.359 46.3614 132.559 45.9364 132.959 45.6031C133.376 45.2698 133.818 45.1031 134.284 45.1031C134.751 45.1031 135.176 45.2698 135.559 45.6031C135.959 45.9364 136.159 46.3614 136.159 46.8781C136.159 47.3948 135.959 47.8198 135.559 48.1531C135.176 48.4698 134.751 48.6281 134.284 48.6281C133.818 48.6281 133.376 48.4698 132.959 48.1531C132.559 47.8198 132.359 47.3948 132.359 46.8781ZM153.819 43.2781C154.969 43.2781 155.994 43.4281 156.894 43.7281C157.794 44.0114 158.544 44.4281 159.144 44.9781C159.76 45.5114 160.227 46.1614 160.544 46.9281C160.86 47.6781 161.019 48.5281 161.019 49.4781C161.019 50.2281 160.902 50.9781 160.669 51.7281C160.452 52.4781 160.085 53.1614 159.569 53.7781C159.069 54.3948 158.402 54.8948 157.569 55.2781C156.735 55.6448 155.702 55.8281 154.469 55.8281H151.869V61.6781H148.244V43.2781H153.819ZM154.444 52.3281C154.994 52.3281 155.452 52.2364 155.819 52.0531C156.185 51.8698 156.469 51.6364 156.669 51.3531C156.885 51.0698 157.035 50.7781 157.119 50.4781C157.219 50.1614 157.269 49.8698 157.269 49.6031C157.269 49.4031 157.235 49.1531 157.169 48.8531C157.119 48.5364 157.002 48.2198 156.819 47.9031C156.635 47.5864 156.352 47.3198 155.969 47.1031C155.602 46.8864 155.102 46.7781 154.469 46.7781H151.869V52.3281H154.444ZM157.844 54.5781L162.394 61.6781H158.169L153.519 54.6781L157.844 54.5781ZM169.694 61.9781C168.361 61.9781 167.227 61.7281 166.294 61.2281C165.377 60.7281 164.677 60.0364 164.194 59.1531C163.711 58.2698 163.469 57.2531 163.469 56.1031C163.469 55.0031 163.752 54.0114 164.319 53.1281C164.886 52.2448 165.644 51.5448 166.594 51.0281C167.544 50.4948 168.602 50.2281 169.769 50.2281C171.336 50.2281 172.619 50.6864 173.619 51.6031C174.636 52.5031 175.294 53.8114 175.594 55.5281L167.094 58.2281L166.319 56.3281L172.469 54.2531L171.744 54.5781C171.611 54.1448 171.369 53.7698 171.019 53.4531C170.686 53.1198 170.177 52.9531 169.494 52.9531C168.977 52.9531 168.519 53.0781 168.119 53.3281C167.736 53.5614 167.436 53.9031 167.219 54.3531C167.019 54.7864 166.919 55.3031 166.919 55.9031C166.919 56.5864 167.044 57.1614 167.294 57.6281C167.544 58.0781 167.886 58.4198 168.319 58.6531C168.752 58.8864 169.236 59.0031 169.769 59.0031C170.152 59.0031 170.519 58.9364 170.869 58.8031C171.236 58.6698 171.594 58.4948 171.944 58.2781L173.494 60.8781C172.911 61.2114 172.277 61.4781 171.594 61.6781C170.927 61.8781 170.294 61.9781 169.694 61.9781ZM181.687 61.9031C180.787 61.9031 179.946 61.7448 179.162 61.4281C178.396 61.1114 177.746 60.6698 177.212 60.1031L178.662 58.1781C179.196 58.6614 179.687 59.0114 180.137 59.2281C180.604 59.4281 181.021 59.5281 181.387 59.5281C181.671 59.5281 181.921 59.5031 182.137 59.4531C182.371 59.3864 182.554 59.2948 182.687 59.1781C182.821 59.0448 182.887 58.8781 182.887 58.6781C182.887 58.3948 182.771 58.1698 182.537 58.0031C182.321 57.8364 182.037 57.7031 181.687 57.6031C181.337 57.4864 180.962 57.3698 180.562 57.2531C179.562 56.9364 178.837 56.4781 178.387 55.8781C177.954 55.2614 177.737 54.5948 177.737 53.8781C177.737 53.3281 177.879 52.7781 178.162 52.2281C178.462 51.6614 178.929 51.1948 179.562 50.8281C180.212 50.4448 181.046 50.2531 182.062 50.2531C182.979 50.2531 183.754 50.3448 184.387 50.5281C185.021 50.7114 185.621 51.0114 186.187 51.4281L184.862 53.4781C184.546 53.2281 184.187 53.0198 183.787 52.8531C183.404 52.6698 183.046 52.5698 182.712 52.5531C182.412 52.5364 182.154 52.5698 181.937 52.6531C181.737 52.7364 181.579 52.8448 181.462 52.9781C181.346 53.1114 181.287 53.2531 181.287 53.4031C181.271 53.7198 181.387 53.9698 181.637 54.1531C181.904 54.3364 182.237 54.4781 182.637 54.5781C183.037 54.6781 183.429 54.7948 183.812 54.9281C184.346 55.0948 184.804 55.3198 185.187 55.6031C185.571 55.8864 185.862 56.2281 186.062 56.6281C186.279 57.0114 186.387 57.4781 186.387 58.0281C186.387 58.6948 186.212 59.3281 185.862 59.9281C185.529 60.5114 185.012 60.9864 184.312 61.3531C183.629 61.7198 182.754 61.9031 181.687 61.9031ZM190.344 45.9531H193.844V50.7031H196.494V53.4281H193.844V61.6781H190.344V53.4281H188.644V50.7031H190.344V45.9531ZM203.758 61.9781C202.741 61.9781 201.816 61.7781 200.983 61.3781C200.166 60.9614 199.516 60.3281 199.033 59.4781C198.55 58.6281 198.308 57.5448 198.308 56.2281C198.308 54.9948 198.558 53.9281 199.058 53.0281C199.558 52.1281 200.216 51.4364 201.033 50.9531C201.85 50.4531 202.716 50.2031 203.633 50.2031C204.716 50.2031 205.533 50.3864 206.083 50.7531C206.65 51.1031 207.116 51.4948 207.483 51.9281L207.333 52.3531L207.658 50.7531H210.908V61.6781H207.408V59.3031L207.683 60.0531C207.65 60.0531 207.55 60.1531 207.383 60.3531C207.216 60.5364 206.966 60.7614 206.633 61.0281C206.316 61.2781 205.916 61.4948 205.433 61.6781C204.966 61.8781 204.408 61.9781 203.758 61.9781ZM204.758 59.1281C205.175 59.1281 205.55 59.0698 205.883 58.9531C206.216 58.8198 206.508 58.6364 206.758 58.4031C207.008 58.1531 207.225 57.8448 207.408 57.4781V54.8031C207.275 54.4364 207.075 54.1281 206.808 53.8781C206.541 53.6114 206.225 53.4114 205.858 53.2781C205.491 53.1281 205.083 53.0531 204.633 53.0531C204.133 53.0531 203.666 53.1864 203.233 53.4531C202.816 53.7031 202.483 54.0531 202.233 54.5031C201.983 54.9531 201.858 55.4698 201.858 56.0531C201.858 56.6364 201.991 57.1614 202.258 57.6281C202.525 58.0948 202.875 58.4614 203.308 58.7281C203.758 58.9948 204.241 59.1281 204.758 59.1281ZM218.039 62.2031C217.056 62.2031 216.231 61.9031 215.564 61.3031C214.898 60.6864 214.548 59.8948 214.514 58.9281V50.7531H218.014V57.6281C218.048 58.1114 218.173 58.5031 218.389 58.8031C218.606 59.0864 218.973 59.2281 219.489 59.2281C220.006 59.2281 220.448 59.0531 220.814 58.7031C221.198 58.3531 221.489 57.8781 221.689 57.2781C221.906 56.6614 222.014 55.9698 222.014 55.2031V50.7531H225.514V61.6781H222.339L222.064 59.6781L222.114 59.9031C221.864 60.3531 221.548 60.7531 221.164 61.1031C220.781 61.4531 220.323 61.7198 219.789 61.9031C219.273 62.1031 218.689 62.2031 218.039 62.2031ZM232.264 50.7531L232.589 53.7531L232.514 53.3031C232.831 52.6531 233.264 52.1031 233.814 51.6531C234.364 51.1864 234.906 50.8281 235.439 50.5781C235.989 50.3281 236.406 50.2031 236.689 50.2031L236.514 53.7031C235.697 53.6031 234.997 53.7364 234.414 54.1031C233.831 54.4698 233.381 54.9531 233.064 55.5531C232.747 56.1531 232.589 56.7698 232.589 57.4031V61.6781H229.114V50.7531H232.264ZM243.602 61.9781C242.585 61.9781 241.66 61.7781 240.827 61.3781C240.01 60.9614 239.36 60.3281 238.877 59.4781C238.393 58.6281 238.152 57.5448 238.152 56.2281C238.152 54.9948 238.402 53.9281 238.902 53.0281C239.402 52.1281 240.06 51.4364 240.877 50.9531C241.693 50.4531 242.56 50.2031 243.477 50.2031C244.56 50.2031 245.377 50.3864 245.927 50.7531C246.493 51.1031 246.96 51.4948 247.327 51.9281L247.177 52.3531L247.502 50.7531H250.752V61.6781H247.252V59.3031L247.527 60.0531C247.493 60.0531 247.393 60.1531 247.227 60.3531C247.06 60.5364 246.81 60.7614 246.477 61.0281C246.16 61.2781 245.76 61.4948 245.277 61.6781C244.81 61.8781 244.252 61.9781 243.602 61.9781ZM244.602 59.1281C245.018 59.1281 245.393 59.0698 245.727 58.9531C246.06 58.8198 246.352 58.6364 246.602 58.4031C246.852 58.1531 247.068 57.8448 247.252 57.4781V54.8031C247.118 54.4364 246.918 54.1281 246.652 53.8781C246.385 53.6114 246.068 53.4114 245.702 53.2781C245.335 53.1281 244.927 53.0531 244.477 53.0531C243.977 53.0531 243.51 53.1864 243.077 53.4531C242.66 53.7031 242.327 54.0531 242.077 54.5031C241.827 54.9531 241.702 55.4698 241.702 56.0531C241.702 56.6364 241.835 57.1614 242.102 57.6281C242.368 58.0948 242.718 58.4614 243.152 58.7281C243.602 58.9948 244.085 59.1281 244.602 59.1281ZM257.533 50.7531L257.808 52.7031L257.758 52.5281C258.141 51.8448 258.683 51.2948 259.383 50.8781C260.083 50.4448 260.941 50.2281 261.958 50.2281C262.991 50.2281 263.85 50.5364 264.533 51.1531C265.233 51.7531 265.591 52.5364 265.608 53.5031V61.6781H262.108V54.8031C262.091 54.3198 261.958 53.9364 261.708 53.6531C261.475 53.3531 261.075 53.2031 260.508 53.2031C259.975 53.2031 259.508 53.3781 259.108 53.7281C258.708 54.0781 258.4 54.5531 258.183 55.1531C257.966 55.7531 257.858 56.4448 257.858 57.2281V61.6781H254.358V50.7531H257.533ZM270.227 45.9531H273.727V50.7031H276.377V53.4281H273.727V61.6781H270.227V53.4281H268.527V50.7031H270.227V45.9531Z" fill="#B28451"/>
</svg>
