<svg width="82" height="62" viewBox="0 0 82 62" fill="none" xmlns="http://www.w3.org/2000/svg">
<path d="M51.3262 5.50018L67.351 32.4957L67.4512 32.6644L67.5822 32.8105L78.6571 45.1531C78.3184 45.4792 77.9193 45.8568 77.466 46.2742C75.8675 47.7458 73.6066 49.7017 70.9543 51.6442C65.5406 55.609 58.9208 59.1978 53.0953 59.069C47.119 58.9368 40.1814 55.6796 34.5395 52.2376C31.7617 50.543 29.3788 48.8545 27.6906 47.5895C27.2653 47.2708 26.8847 46.9794 26.5536 46.7222L37.6431 32.7163L37.7709 32.5548L37.8632 32.3707L51.3262 5.50018Z" stroke="#B28451" stroke-width="4"/>
<path d="M29.1387 5.50018L45.1635 32.4957L45.2637 32.6644L45.3947 32.8105L56.4696 45.1531C56.1309 45.4792 55.7318 45.8568 55.2785 46.2742C53.68 47.7458 51.4191 49.7017 48.7668 51.6442C43.3531 55.609 36.7333 59.1978 30.9078 59.069C24.9315 58.9368 17.9939 55.6796 12.352 52.2376C9.57419 50.543 7.19126 48.8545 5.50308 47.5895C5.07776 47.2708 4.69717 46.9794 4.36615 46.7222L15.4556 32.7163L15.5834 32.5548L15.6757 32.3707L29.1387 5.50018Z" stroke="#B28451" stroke-width="4"/>
</svg>
