<svg width="278" height="63" viewBox="0 0 278 63" fill="none" xmlns="http://www.w3.org/2000/svg">
<path d="M51.1665 5.52728L67.1914 32.5228L67.2915 32.6915L67.4226 32.8376L78.4974 45.1802C78.1588 45.5063 77.7597 45.8839 77.3063 46.3013C75.7078 47.7729 73.447 49.7288 70.7946 51.6713C65.381 55.6361 58.7611 59.2249 52.9357 59.0961C46.9594 58.9639 40.0217 55.7067 34.3798 52.2647C31.602 50.5701 29.2191 48.8816 27.5309 47.6166C27.1056 47.2979 26.725 47.0065 26.394 46.7493L37.4834 32.7434L37.6112 32.5819L37.7035 32.3978L51.1665 5.52728Z" stroke="black" stroke-width="4"/>
<path d="M28.979 5.52728L45.0039 32.5228L45.104 32.6915L45.2351 32.8376L56.3099 45.1802C55.9713 45.5063 55.5722 45.8839 55.1188 46.3013C53.5203 47.7729 51.2595 49.7288 48.6071 51.6713C43.1935 55.6361 36.5736 59.2249 30.7482 59.0961C24.7719 58.9639 17.8342 55.7067 12.1923 52.2647C9.41452 50.5701 7.03159 48.8816 5.34341 47.6166C4.91809 47.2979 4.5375 47.0065 4.20648 46.7493L15.2959 32.7434L15.4237 32.5819L15.516 32.3978L28.979 5.52728Z" stroke="black" stroke-width="4"/>
<path d="M88.6356 4.94252H92.9856V22.8225H103.366V27.0225H88.6356V4.94252ZM114.889 16.0125C114.889 14.4925 115.179 13.0525 115.759 11.6925C116.339 10.3325 117.139 9.13252 118.159 8.09252C119.199 7.03252 120.399 6.20252 121.759 5.60252C123.119 5.00252 124.579 4.70252 126.139 4.70252C127.679 4.70252 129.129 5.00252 130.489 5.60252C131.849 6.20252 133.049 7.03252 134.089 8.09252C135.149 9.13252 135.969 10.3325 136.549 11.6925C137.149 13.0525 137.449 14.4925 137.449 16.0125C137.449 17.5725 137.149 19.0325 136.549 20.3925C135.969 21.7525 135.149 22.9525 134.089 23.9925C133.049 25.0125 131.849 25.8125 130.489 26.3925C129.129 26.9725 127.679 27.2625 126.139 27.2625C124.579 27.2625 123.119 26.9725 121.759 26.3925C120.399 25.8125 119.199 25.0125 118.159 23.9925C117.139 22.9525 116.339 21.7525 115.759 20.3925C115.179 19.0325 114.889 17.5725 114.889 16.0125ZM119.389 16.0125C119.389 16.9925 119.559 17.9125 119.899 18.7725C120.259 19.6125 120.749 20.3625 121.369 21.0225C122.009 21.6625 122.739 22.1625 123.559 22.5225C124.399 22.8825 125.309 23.0625 126.289 23.0625C127.229 23.0625 128.099 22.8825 128.899 22.5225C129.719 22.1625 130.429 21.6625 131.029 21.0225C131.629 20.3625 132.099 19.6125 132.439 18.7725C132.779 17.9125 132.949 16.9925 132.949 16.0125C132.949 15.0125 132.769 14.0825 132.409 13.2225C132.069 12.3625 131.589 11.6125 130.969 10.9725C130.369 10.3125 129.659 9.80252 128.839 9.44252C128.019 9.08252 127.129 8.90252 126.169 8.90252C125.209 8.90252 124.319 9.08252 123.499 9.44252C122.679 9.80252 121.959 10.3125 121.339 10.9725C120.719 11.6125 120.239 12.3625 119.899 13.2225C119.559 14.0825 119.389 15.0125 119.389 16.0125ZM148.524 4.94252H163.404V9.14252H158.034V27.0225H153.684V9.14252H148.524V4.94252ZM180.502 18.8625C180.502 19.5625 180.712 20.2325 181.132 20.8725C181.552 21.5125 182.102 22.0325 182.782 22.4325C183.482 22.8325 184.242 23.0325 185.062 23.0325C185.962 23.0325 186.762 22.8325 187.462 22.4325C188.162 22.0325 188.712 21.5125 189.112 20.8725C189.532 20.2325 189.742 19.5625 189.742 18.8625V4.94252H194.032V18.9525C194.032 20.5725 193.632 22.0125 192.832 23.2725C192.032 24.5125 190.952 25.4925 189.592 26.2125C188.232 26.9125 186.722 27.2625 185.062 27.2625C183.422 27.2625 181.922 26.9125 180.562 26.2125C179.222 25.4925 178.152 24.5125 177.352 23.2725C176.552 22.0125 176.152 20.5725 176.152 18.9525V4.94252H180.502V18.8625ZM220.068 10.2825C219.228 9.82252 218.368 9.44252 217.488 9.14252C216.628 8.84252 215.818 8.69252 215.058 8.69252C214.118 8.69252 213.378 8.88252 212.838 9.26252C212.298 9.64252 212.028 10.2125 212.028 10.9725C212.028 11.4925 212.228 11.9625 212.628 12.3825C213.048 12.7825 213.578 13.1425 214.218 13.4625C214.878 13.7825 215.558 14.0725 216.258 14.3325C216.898 14.5725 217.528 14.8625 218.148 15.2025C218.788 15.5225 219.358 15.9325 219.858 16.4325C220.358 16.9125 220.758 17.5225 221.058 18.2625C221.358 18.9825 221.508 19.8725 221.508 20.9325C221.508 22.0525 221.218 23.0925 220.638 24.0525C220.058 25.0125 219.208 25.7925 218.088 26.3925C216.968 26.9725 215.588 27.2625 213.948 27.2625C213.108 27.2625 212.248 27.1825 211.368 27.0225C210.508 26.8425 209.658 26.5825 208.818 26.2425C207.978 25.8825 207.168 25.4325 206.388 24.8925L208.308 21.5025C208.828 21.8825 209.388 22.2225 209.988 22.5225C210.608 22.8025 211.228 23.0225 211.848 23.1825C212.468 23.3425 213.038 23.4225 213.558 23.4225C214.078 23.4225 214.598 23.3525 215.118 23.2125C215.658 23.0525 216.098 22.7925 216.438 22.4325C216.798 22.0725 216.978 21.5725 216.978 20.9325C216.978 20.4925 216.828 20.0925 216.528 19.7325C216.248 19.3725 215.858 19.0425 215.358 18.7425C214.878 18.4425 214.348 18.1825 213.768 17.9625C213.088 17.7025 212.388 17.4025 211.668 17.0625C210.948 16.7225 210.268 16.3125 209.628 15.8325C209.008 15.3325 208.498 14.7225 208.098 14.0025C207.718 13.2625 207.528 12.3625 207.528 11.3025C207.528 10.0225 207.808 8.91252 208.368 7.97252C208.948 7.03252 209.758 6.29252 210.798 5.75252C211.838 5.19252 213.038 4.88252 214.398 4.82252C216.178 4.82252 217.618 5.03252 218.718 5.45252C219.838 5.87252 220.838 6.37252 221.718 6.95252L220.068 10.2825ZM86.9106 43.6225H99.3106V47.1225H94.8356V62.0225H91.2106V47.1225H86.9106V43.6225ZM102.234 62.0225V42.2975H105.659V53.2975L105.634 52.8725C106.017 52.1892 106.559 51.6392 107.259 51.2225C107.959 50.7892 108.817 50.5725 109.834 50.5725C110.867 50.5725 111.726 50.8809 112.409 51.4975C113.109 52.0975 113.467 52.8809 113.484 53.8475V62.0225H109.984V55.1475C109.967 54.6642 109.834 54.2809 109.584 53.9975C109.351 53.6975 108.951 53.5475 108.384 53.5475C107.851 53.5475 107.384 53.7225 106.984 54.0725C106.584 54.4225 106.276 54.8975 106.059 55.4975C105.842 56.0975 105.734 56.7892 105.734 57.5725V62.0225H102.234ZM121.678 62.3225C120.661 62.3225 119.736 62.1225 118.903 61.7225C118.086 61.3059 117.436 60.6725 116.953 59.8225C116.469 58.9725 116.228 57.8892 116.228 56.5725C116.228 55.3392 116.478 54.2725 116.978 53.3725C117.478 52.4725 118.136 51.7809 118.953 51.2975C119.769 50.7975 120.636 50.5475 121.553 50.5475C122.636 50.5475 123.453 50.7309 124.003 51.0975C124.569 51.4475 125.036 51.8392 125.403 52.2725L125.253 52.6975L125.578 51.0975H128.828V62.0225H125.328V59.6475L125.603 60.3975C125.569 60.3975 125.469 60.4975 125.303 60.6975C125.136 60.8809 124.886 61.1059 124.553 61.3725C124.236 61.6225 123.836 61.8392 123.353 62.0225C122.886 62.2225 122.328 62.3225 121.678 62.3225ZM122.678 59.4725C123.094 59.4725 123.469 59.4142 123.803 59.2975C124.136 59.1642 124.428 58.9809 124.678 58.7475C124.928 58.4975 125.144 58.1892 125.328 57.8225V55.1475C125.194 54.7809 124.994 54.4725 124.728 54.2225C124.461 53.9559 124.144 53.7559 123.778 53.6225C123.411 53.4725 123.003 53.3975 122.553 53.3975C122.053 53.3975 121.586 53.5309 121.153 53.7975C120.736 54.0475 120.403 54.3975 120.153 54.8475C119.903 55.2975 119.778 55.8142 119.778 56.3975C119.778 56.9809 119.911 57.5059 120.178 57.9725C120.444 58.4392 120.794 58.8059 121.228 59.0725C121.678 59.3392 122.161 59.4725 122.678 59.4725ZM132.434 51.0975H135.934V62.0225H132.434V51.0975ZM132.359 47.2225C132.359 46.7059 132.559 46.2809 132.959 45.9475C133.376 45.6142 133.818 45.4475 134.284 45.4475C134.751 45.4475 135.176 45.6142 135.559 45.9475C135.959 46.2809 136.159 46.7059 136.159 47.2225C136.159 47.7392 135.959 48.1642 135.559 48.4975C135.176 48.8142 134.751 48.9725 134.284 48.9725C133.818 48.9725 133.376 48.8142 132.959 48.4975C132.559 48.1642 132.359 47.7392 132.359 47.2225ZM153.819 43.6225C154.969 43.6225 155.994 43.7725 156.894 44.0725C157.794 44.3559 158.544 44.7725 159.144 45.3225C159.76 45.8559 160.227 46.5059 160.544 47.2725C160.86 48.0225 161.019 48.8725 161.019 49.8225C161.019 50.5725 160.902 51.3225 160.669 52.0725C160.452 52.8225 160.085 53.5059 159.569 54.1225C159.069 54.7392 158.402 55.2392 157.569 55.6225C156.735 55.9892 155.702 56.1725 154.469 56.1725H151.869V62.0225H148.244V43.6225H153.819ZM154.444 52.6725C154.994 52.6725 155.452 52.5809 155.819 52.3975C156.185 52.2142 156.469 51.9809 156.669 51.6975C156.885 51.4142 157.035 51.1225 157.119 50.8225C157.219 50.5059 157.269 50.2142 157.269 49.9475C157.269 49.7475 157.235 49.4975 157.169 49.1975C157.119 48.8809 157.002 48.5642 156.819 48.2475C156.635 47.9309 156.352 47.6642 155.969 47.4475C155.602 47.2309 155.102 47.1225 154.469 47.1225H151.869V52.6725H154.444ZM157.844 54.9225L162.394 62.0225H158.169L153.519 55.0225L157.844 54.9225ZM169.694 62.3225C168.361 62.3225 167.227 62.0725 166.294 61.5725C165.377 61.0725 164.677 60.3809 164.194 59.4975C163.711 58.6142 163.469 57.5975 163.469 56.4475C163.469 55.3475 163.752 54.3559 164.319 53.4725C164.886 52.5892 165.644 51.8892 166.594 51.3725C167.544 50.8392 168.602 50.5725 169.769 50.5725C171.336 50.5725 172.619 51.0309 173.619 51.9475C174.636 52.8475 175.294 54.1559 175.594 55.8725L167.094 58.5725L166.319 56.6725L172.469 54.5975L171.744 54.9225C171.611 54.4892 171.369 54.1142 171.019 53.7975C170.686 53.4642 170.177 53.2975 169.494 53.2975C168.977 53.2975 168.519 53.4225 168.119 53.6725C167.736 53.9059 167.436 54.2475 167.219 54.6975C167.019 55.1309 166.919 55.6475 166.919 56.2475C166.919 56.9309 167.044 57.5059 167.294 57.9725C167.544 58.4225 167.886 58.7642 168.319 58.9975C168.752 59.2309 169.236 59.3475 169.769 59.3475C170.152 59.3475 170.519 59.2809 170.869 59.1475C171.236 59.0142 171.594 58.8392 171.944 58.6225L173.494 61.2225C172.911 61.5559 172.277 61.8225 171.594 62.0225C170.927 62.2225 170.294 62.3225 169.694 62.3225ZM181.687 62.2475C180.787 62.2475 179.946 62.0892 179.162 61.7725C178.396 61.4559 177.746 61.0142 177.212 60.4475L178.662 58.5225C179.196 59.0059 179.687 59.3559 180.137 59.5725C180.604 59.7725 181.021 59.8725 181.387 59.8725C181.671 59.8725 181.921 59.8475 182.137 59.7975C182.371 59.7309 182.554 59.6392 182.687 59.5225C182.821 59.3892 182.887 59.2225 182.887 59.0225C182.887 58.7392 182.771 58.5142 182.537 58.3475C182.321 58.1809 182.037 58.0475 181.687 57.9475C181.337 57.8309 180.962 57.7142 180.562 57.5975C179.562 57.2809 178.837 56.8225 178.387 56.2225C177.954 55.6059 177.737 54.9392 177.737 54.2225C177.737 53.6725 177.879 53.1225 178.162 52.5725C178.462 52.0059 178.929 51.5392 179.562 51.1725C180.212 50.7892 181.046 50.5975 182.062 50.5975C182.979 50.5975 183.754 50.6892 184.387 50.8725C185.021 51.0559 185.621 51.3559 186.187 51.7725L184.862 53.8225C184.546 53.5725 184.187 53.3642 183.787 53.1975C183.404 53.0142 183.046 52.9142 182.712 52.8975C182.412 52.8809 182.154 52.9142 181.937 52.9975C181.737 53.0809 181.579 53.1892 181.462 53.3225C181.346 53.4559 181.287 53.5975 181.287 53.7475C181.271 54.0642 181.387 54.3142 181.637 54.4975C181.904 54.6809 182.237 54.8225 182.637 54.9225C183.037 55.0225 183.429 55.1392 183.812 55.2725C184.346 55.4392 184.804 55.6642 185.187 55.9475C185.571 56.2309 185.862 56.5725 186.062 56.9725C186.279 57.3559 186.387 57.8225 186.387 58.3725C186.387 59.0392 186.212 59.6725 185.862 60.2725C185.529 60.8559 185.012 61.3309 184.312 61.6975C183.629 62.0642 182.754 62.2475 181.687 62.2475ZM190.344 46.2975H193.844V51.0475H196.494V53.7725H193.844V62.0225H190.344V53.7725H188.644V51.0475H190.344V46.2975ZM203.758 62.3225C202.741 62.3225 201.816 62.1225 200.983 61.7225C200.166 61.3059 199.516 60.6725 199.033 59.8225C198.55 58.9725 198.308 57.8892 198.308 56.5725C198.308 55.3392 198.558 54.2725 199.058 53.3725C199.558 52.4725 200.216 51.7809 201.033 51.2975C201.85 50.7975 202.716 50.5475 203.633 50.5475C204.716 50.5475 205.533 50.7309 206.083 51.0975C206.65 51.4475 207.116 51.8392 207.483 52.2725L207.333 52.6975L207.658 51.0975H210.908V62.0225H207.408V59.6475L207.683 60.3975C207.65 60.3975 207.55 60.4975 207.383 60.6975C207.216 60.8809 206.966 61.1059 206.633 61.3725C206.316 61.6225 205.916 61.8392 205.433 62.0225C204.966 62.2225 204.408 62.3225 203.758 62.3225ZM204.758 59.4725C205.175 59.4725 205.55 59.4142 205.883 59.2975C206.216 59.1642 206.508 58.9809 206.758 58.7475C207.008 58.4975 207.225 58.1892 207.408 57.8225V55.1475C207.275 54.7809 207.075 54.4725 206.808 54.2225C206.541 53.9559 206.225 53.7559 205.858 53.6225C205.491 53.4725 205.083 53.3975 204.633 53.3975C204.133 53.3975 203.666 53.5309 203.233 53.7975C202.816 54.0475 202.483 54.3975 202.233 54.8475C201.983 55.2975 201.858 55.8142 201.858 56.3975C201.858 56.9809 201.991 57.5059 202.258 57.9725C202.525 58.4392 202.875 58.8059 203.308 59.0725C203.758 59.3392 204.241 59.4725 204.758 59.4725ZM218.039 62.5475C217.056 62.5475 216.231 62.2475 215.564 61.6475C214.898 61.0309 214.548 60.2392 214.514 59.2725V51.0975H218.014V57.9725C218.048 58.4559 218.173 58.8475 218.389 59.1475C218.606 59.4309 218.973 59.5725 219.489 59.5725C220.006 59.5725 220.448 59.3975 220.814 59.0475C221.198 58.6975 221.489 58.2225 221.689 57.6225C221.906 57.0059 222.014 56.3142 222.014 55.5475V51.0975H225.514V62.0225H222.339L222.064 60.0225L222.114 60.2475C221.864 60.6975 221.548 61.0975 221.164 61.4475C220.781 61.7975 220.323 62.0642 219.789 62.2475C219.273 62.4475 218.689 62.5475 218.039 62.5475ZM232.264 51.0975L232.589 54.0975L232.514 53.6475C232.831 52.9975 233.264 52.4475 233.814 51.9975C234.364 51.5309 234.906 51.1725 235.439 50.9225C235.989 50.6725 236.406 50.5475 236.689 50.5475L236.514 54.0475C235.697 53.9475 234.997 54.0809 234.414 54.4475C233.831 54.8142 233.381 55.2975 233.064 55.8975C232.747 56.4975 232.589 57.1142 232.589 57.7475V62.0225H229.114V51.0975H232.264ZM243.602 62.3225C242.585 62.3225 241.66 62.1225 240.827 61.7225C240.01 61.3059 239.36 60.6725 238.877 59.8225C238.393 58.9725 238.152 57.8892 238.152 56.5725C238.152 55.3392 238.402 54.2725 238.902 53.3725C239.402 52.4725 240.06 51.7809 240.877 51.2975C241.693 50.7975 242.56 50.5475 243.477 50.5475C244.56 50.5475 245.377 50.7309 245.927 51.0975C246.493 51.4475 246.96 51.8392 247.327 52.2725L247.177 52.6975L247.502 51.0975H250.752V62.0225H247.252V59.6475L247.527 60.3975C247.493 60.3975 247.393 60.4975 247.227 60.6975C247.06 60.8809 246.81 61.1059 246.477 61.3725C246.16 61.6225 245.76 61.8392 245.277 62.0225C244.81 62.2225 244.252 62.3225 243.602 62.3225ZM244.602 59.4725C245.018 59.4725 245.393 59.4142 245.727 59.2975C246.06 59.1642 246.352 58.9809 246.602 58.7475C246.852 58.4975 247.068 58.1892 247.252 57.8225V55.1475C247.118 54.7809 246.918 54.4725 246.652 54.2225C246.385 53.9559 246.068 53.7559 245.702 53.6225C245.335 53.4725 244.927 53.3975 244.477 53.3975C243.977 53.3975 243.51 53.5309 243.077 53.7975C242.66 54.0475 242.327 54.3975 242.077 54.8475C241.827 55.2975 241.702 55.8142 241.702 56.3975C241.702 56.9809 241.835 57.5059 242.102 57.9725C242.368 58.4392 242.718 58.8059 243.152 59.0725C243.602 59.3392 244.085 59.4725 244.602 59.4725ZM257.533 51.0975L257.808 53.0475L257.758 52.8725C258.141 52.1892 258.683 51.6392 259.383 51.2225C260.083 50.7892 260.941 50.5725 261.958 50.5725C262.991 50.5725 263.85 50.8809 264.533 51.4975C265.233 52.0975 265.591 52.8809 265.608 53.8475V62.0225H262.108V55.1475C262.091 54.6642 261.958 54.2809 261.708 53.9975C261.475 53.6975 261.075 53.5475 260.508 53.5475C259.975 53.5475 259.508 53.7225 259.108 54.0725C258.708 54.4225 258.4 54.8975 258.183 55.4975C257.966 56.0975 257.858 56.7892 257.858 57.5725V62.0225H254.358V51.0975H257.533ZM270.227 46.2975H273.727V51.0475H276.377V53.7725H273.727V62.0225H270.227V53.7725H268.527V51.0475H270.227V46.2975Z" fill="black"/>
</svg>
