<svg width="32" height="32" viewBox="0 0 32 32" fill="none" xmlns="http://www.w3.org/2000/svg">
<path d="M10.4001 2.44092C5.95469 2.44092 2.34009 6.05552 2.34009 10.5009V21.6609C2.34009 26.1063 5.95469 29.7209 10.4001 29.7209H21.5601C26.0055 29.7209 29.6201 26.1063 29.6201 21.6609V10.5009C29.6201 6.05552 26.0055 2.44092 21.5601 2.44092H10.4001ZM23.4201 7.40092C24.1021 7.40092 24.6601 7.95892 24.6601 8.64092C24.6601 9.32292 24.1021 9.88092 23.4201 9.88092C22.7381 9.88092 22.1801 9.32292 22.1801 8.64092C22.1801 7.95892 22.7381 7.40092 23.4201 7.40092ZM15.9801 9.26092C19.7435 9.26092 22.8001 12.3175 22.8001 16.0809C22.8001 19.8443 19.7435 22.9009 15.9801 22.9009C12.2167 22.9009 9.16009 19.8443 9.16009 16.0809C9.16009 12.3175 12.2167 9.26092 15.9801 9.26092ZM15.9801 10.5009C12.9049 10.5009 10.4001 13.0057 10.4001 16.0809C10.4001 19.1561 12.9049 21.6609 15.9801 21.6609C19.0553 21.6609 21.5601 19.1561 21.5601 16.0809C21.5601 13.0057 19.0553 10.5009 15.9801 10.5009Z" fill="white"/>
</svg>
