<svg width="31" height="32" viewBox="0 0 31 32" fill="none" xmlns="http://www.w3.org/2000/svg">
<path d="M11.9846 5.60127H9.37462C8.77331 5.60138 8.18786 5.796 7.70417 6.15658C7.22049 6.51716 6.86404 7.02471 6.68712 7.60476L3.67212 17.4948C3.58954 17.765 3.54741 18.0461 3.54712 18.3288V23.5797C3.54712 24.3326 3.84344 25.0547 4.37088 25.587C4.89833 26.1194 5.6137 26.4185 6.35962 26.4185H25.1096C25.8555 26.4185 26.5709 26.1194 27.0984 25.587C27.6258 25.0547 27.9221 24.3326 27.9221 23.5797V18.3288C27.9221 18.0462 27.8796 17.7648 27.7971 17.4948L24.7846 7.60476C24.6077 7.02471 24.2512 6.51716 23.7676 6.15658C23.2839 5.796 22.6984 5.60138 22.0971 5.60127H19.4846M3.54712 17.9023H8.37212C8.89437 17.9025 9.40626 18.0494 9.85046 18.3266C10.2947 18.6038 10.6536 19.0003 10.8871 19.4718L11.2071 20.1178C11.4407 20.5895 11.7999 20.9862 12.2443 21.2634C12.6888 21.5406 13.2009 21.6874 13.7234 21.6873H17.7459C18.2683 21.6874 18.7805 21.5406 19.2249 21.2634C19.6694 20.9862 20.0285 20.5895 20.2621 20.1178L20.5821 19.4718C20.8157 19.0001 21.1749 18.6034 21.6193 18.3262C22.0638 18.049 22.5759 17.9022 23.0984 17.9023H27.9221M15.7346 4.65503V15.0636M15.7346 15.0636L11.9846 11.2787M15.7346 15.0636L19.4846 11.2787" stroke="white" stroke-width="1.5" stroke-linecap="round" stroke-linejoin="round"/>
</svg>
