<svg width="32" height="32" viewBox="0 0 32 32" fill="none" xmlns="http://www.w3.org/2000/svg">
<path d="M25.9 3.06079H6.05996C4.34876 3.06079 2.95996 4.44959 2.95996 6.16079V26.0008C2.95996 27.712 4.34876 29.1008 6.05996 29.1008H25.9C27.6112 29.1008 29 27.712 29 26.0008V6.16079C29 4.44959 27.6112 3.06079 25.9 3.06079ZM23.42 12.3608H22.18C20.8532 12.3608 20.32 12.6708 20.32 13.6008V15.4608H23.42L22.8 18.5608H20.32V27.8608H17.22V18.5608H14.74V15.4608H17.22V13.6008C17.22 11.1208 18.46 9.26079 20.94 9.26079C22.738 9.26079 23.42 9.88079 23.42 9.88079V12.3608Z" fill="white"/>
</svg>
