<svg width="32" height="32" viewBox="0 0 32 32" fill="none" xmlns="http://www.w3.org/2000/svg">
<path d="M6.05996 3.06055C4.34876 3.06055 2.95996 4.44935 2.95996 6.16055V26.0005C2.95996 27.7117 4.34876 29.1005 6.05996 29.1005H25.9C27.6112 29.1005 29 27.7117 29 26.0005V6.16055C29 4.44935 27.6112 3.06055 25.9 3.06055H6.05996ZM15.98 7.40055C21.1074 7.40055 25.28 10.7233 25.28 14.8091C25.28 16.4397 24.6347 17.9162 23.2831 19.367C22.3097 20.4706 20.7295 21.6854 19.2725 22.6898C17.8155 23.6818 16.476 24.4627 15.98 24.6673C15.7816 24.7479 15.6328 24.7848 15.515 24.7848C15.1058 24.7848 15.1425 24.3518 15.1735 24.172C15.1983 24.0356 15.3103 23.3898 15.3103 23.3898C15.3413 23.1604 15.3718 22.7957 15.2788 22.5663C15.1734 22.3121 14.758 22.1815 14.4542 22.1195C9.99018 21.5367 6.67996 18.4671 6.67996 14.8091C6.67996 10.7233 10.8526 7.40055 15.98 7.40055ZM15.3551 12.3593C15.0428 12.3651 14.74 12.6035 14.74 12.9805V16.7005C14.74 17.0428 15.0177 17.3205 15.36 17.3205C15.7022 17.3205 15.98 17.0428 15.98 16.7005V14.9156L17.335 17.0602C17.6859 17.5512 18.46 17.3038 18.46 16.7005V12.9805C18.46 12.6383 18.1822 12.3605 17.84 12.3605C17.4977 12.3605 17.22 12.6383 17.22 12.9805V14.8405L15.8649 12.6209C15.7333 12.4368 15.5425 12.3559 15.3551 12.3593ZM9.77996 12.3605C9.43772 12.3605 9.15996 12.6383 9.15996 12.9805V16.7005C9.15996 17.0428 9.43772 17.3205 9.77996 17.3205H11.64C11.9822 17.3205 12.26 17.0428 12.26 16.7005C12.26 16.3583 11.9822 16.0805 11.64 16.0805H10.4V12.9805C10.4 12.6383 10.1222 12.3605 9.77996 12.3605ZM13.5 12.3605C13.1577 12.3605 12.88 12.6383 12.88 12.9805V16.7005C12.88 17.0428 13.1577 17.3205 13.5 17.3205C13.8422 17.3205 14.12 17.0428 14.12 16.7005V12.9805C14.12 12.6383 13.8422 12.3605 13.5 12.3605ZM19.7 12.3605C19.3577 12.3605 19.08 12.6383 19.08 12.9805V16.7005C19.08 17.0428 19.3577 17.3205 19.7 17.3205H21.56C21.9022 17.3205 22.18 17.0428 22.18 16.7005C22.18 16.3583 21.9022 16.0805 21.56 16.0805H20.32V15.4605H21.56C21.9028 15.4605 22.18 15.1828 22.18 14.8405C22.18 14.4983 21.9028 14.2205 21.56 14.2205H20.32V13.6005H21.56C21.9022 13.6005 22.18 13.3228 22.18 12.9805C22.18 12.6383 21.9022 12.3605 21.56 12.3605H19.7Z" fill="white"/>
</svg>
