<svg width="31" height="31" viewBox="0 0 31 31" fill="none" xmlns="http://www.w3.org/2000/svg">
<path d="M19.5154 13.998C19.5154 14.9926 19.1203 15.9464 18.417 16.6497C17.7138 17.353 16.7599 17.748 15.7654 17.748C14.7708 17.748 13.817 17.353 13.1137 16.6497C12.4105 15.9464 12.0154 14.9926 12.0154 13.998C12.0154 13.0035 12.4105 12.0497 13.1137 11.3464C13.817 10.6431 14.7708 10.248 15.7654 10.248C16.7599 10.248 17.7138 10.6431 18.417 11.3464C19.1203 12.0497 19.5154 13.0035 19.5154 13.998Z" stroke="white" stroke-width="1.5" stroke-linecap="round" stroke-linejoin="round"/>
<path d="M25.1404 13.998C25.1404 22.9255 15.7654 28.0605 15.7654 28.0605C15.7654 28.0605 6.39038 22.9255 6.39038 13.998C6.39038 11.5116 7.3781 9.12707 9.13625 7.36892C10.8944 5.61077 13.279 4.62305 15.7654 4.62305C18.2518 4.62305 20.6364 5.61077 22.3945 7.36892C24.1527 9.12707 25.1404 11.5116 25.1404 13.998Z" stroke="white" stroke-width="1.5" stroke-linecap="round" stroke-linejoin="round"/>
</svg>
