<svg width="31" height="31" viewBox="0 0 31 31" fill="none" xmlns="http://www.w3.org/2000/svg">
<path d="M18.0625 13.0574V7.43237M18.0625 13.0574H23.6875M18.0625 13.0574L25.5625 5.55737M21.8125 28.0574C11.4575 28.0574 3.0625 19.6624 3.0625 9.30737V6.49487C3.0625 5.74895 3.35882 5.03358 3.88626 4.50614C4.41371 3.97869 5.12908 3.68237 5.875 3.68237H7.59C8.235 3.68237 8.7975 4.12112 8.95375 4.74737L10.3363 10.2761C10.4738 10.8261 10.2687 11.4036 9.815 11.7424L8.19875 12.9549C7.96741 13.1223 7.79625 13.36 7.71068 13.6324C7.62511 13.9049 7.62969 14.1977 7.72375 14.4674C8.47609 16.5138 9.66426 18.3722 11.206 19.9139C12.7477 21.4556 14.6061 22.6438 16.6525 23.3961C17.2037 23.5986 17.8125 23.3911 18.165 22.9211L19.3775 21.3049C19.5435 21.0833 19.7711 20.9157 20.032 20.8229C20.2928 20.7302 20.5752 20.7165 20.8438 20.7836L26.3725 22.1661C26.9975 22.3224 27.4375 22.8849 27.4375 23.5299V25.2449C27.4375 25.9908 27.1412 26.7062 26.6137 27.2336C26.0863 27.7611 25.3709 28.0574 24.625 28.0574H21.8125Z" stroke="white" stroke-width="1.5" stroke-linecap="round" stroke-linejoin="round"/>
</svg>
