<svg width="25" height="25" viewBox="0 0 25 25" fill="none" xmlns="http://www.w3.org/2000/svg">
<path d="M17.6413 15.5732C18.1091 15.2538 18.6577 15.0733 19.2238 15.0527C19.7899 15.0321 20.3503 15.1721 20.8401 15.4567C21.3299 15.7412 21.7291 16.1586 21.9916 16.6606C22.2541 17.1626 22.3691 17.7286 22.3233 18.2932C21.1234 18.7126 19.849 18.8758 18.5823 18.7722C18.5784 17.6389 18.252 16.529 17.6413 15.5742C17.0992 14.724 16.3514 14.0243 15.4671 13.5398C14.5828 13.0552 13.5906 12.8016 12.5823 12.8022C11.5741 12.8017 10.5821 13.0555 9.69799 13.54C8.81389 14.0245 8.06626 14.7242 7.52426 15.5742M18.5813 18.7712L18.5823 18.8022C18.5823 19.0272 18.5703 19.2492 18.5453 19.4682C16.7306 20.5094 14.6743 21.0556 12.5823 21.0522C10.4123 21.0522 8.37526 20.4762 6.61926 19.4682C6.59355 19.2368 6.5812 19.0041 6.58226 18.7712M6.58226 18.7712C5.31589 18.8785 4.04217 18.7159 2.84326 18.2942C2.79761 17.7298 2.91265 17.164 3.17509 16.6621C3.43752 16.1603 3.83663 15.743 4.32626 15.4585C4.8159 15.174 5.37606 15.0339 5.94198 15.0544C6.5079 15.0749 7.05647 15.2551 7.52426 15.5742M6.58226 18.7712C6.58585 17.638 6.91388 16.5291 7.52426 15.5742M15.5823 6.80225C15.5823 7.5979 15.2662 8.36096 14.7036 8.92357C14.141 9.48618 13.3779 9.80225 12.5823 9.80225C11.7866 9.80225 11.0235 9.48618 10.4609 8.92357C9.89833 8.36096 9.58226 7.5979 9.58226 6.80225C9.58226 6.0066 9.89833 5.24353 10.4609 4.68093C11.0235 4.11832 11.7866 3.80225 12.5823 3.80225C13.3779 3.80225 14.141 4.11832 14.7036 4.68093C15.2662 5.24353 15.5823 6.0066 15.5823 6.80225ZM21.5823 9.80225C21.5823 10.0977 21.5241 10.3903 21.411 10.6633C21.2979 10.9363 21.1322 11.1843 20.9233 11.3932C20.7143 11.6022 20.4663 11.7679 20.1933 11.881C19.9203 11.994 19.6277 12.0522 19.3323 12.0522C19.0368 12.0522 18.7442 11.994 18.4712 11.881C18.1982 11.7679 17.9502 11.6022 17.7413 11.3932C17.5323 11.1843 17.3666 10.9363 17.2535 10.6633C17.1405 10.3903 17.0823 10.0977 17.0823 9.80225C17.0823 9.20551 17.3193 8.63321 17.7413 8.21126C18.1632 7.7893 18.7355 7.55225 19.3323 7.55225C19.929 7.55225 20.5013 7.7893 20.9233 8.21126C21.3452 8.63321 21.5823 9.20551 21.5823 9.80225ZM8.08226 9.80225C8.08226 10.0977 8.02406 10.3903 7.91099 10.6633C7.79792 10.9363 7.63218 11.1843 7.42325 11.3932C7.21432 11.6022 6.96628 11.7679 6.6933 11.881C6.42032 11.994 6.12773 12.0522 5.83226 12.0522C5.53679 12.0522 5.24421 11.994 4.97122 11.881C4.69824 11.7679 4.4502 11.6022 4.24127 11.3932C4.03234 11.1843 3.8666 10.9363 3.75353 10.6633C3.64046 10.3903 3.58226 10.0977 3.58226 9.80225C3.58226 9.20551 3.81931 8.63321 4.24127 8.21126C4.66323 7.7893 5.23552 7.55225 5.83226 7.55225C6.429 7.55225 7.00129 7.7893 7.42325 8.21126C7.84521 8.63321 8.08226 9.20551 8.08226 9.80225Z" stroke="#B28451" stroke-width="1.5" stroke-linecap="round" stroke-linejoin="round"/>
</svg>
