<svg width="24" height="25" viewBox="0 0 24 25" fill="none" xmlns="http://www.w3.org/2000/svg">
<path d="M9.00244 12.8022L11.2524 15.0522L15.0024 9.80225M21.0024 12.0522C21.0024 13.3202 20.3724 14.4422 19.4094 15.1202C19.5132 15.713 19.4726 16.3221 19.291 16.8958C19.1095 17.4695 18.7923 17.9911 18.3664 18.4162C17.9413 18.8421 17.4197 19.1593 16.846 19.3408C16.2723 19.5224 15.6632 19.563 15.0704 19.4592C14.7247 19.9517 14.2653 20.3536 13.7312 20.6309C13.1972 20.9082 12.6042 21.0527 12.0024 21.0522C10.7344 21.0522 9.61244 20.4222 8.93444 19.4592C8.34167 19.5629 7.73265 19.5223 7.15893 19.3407C6.5852 19.1592 6.06366 18.8421 5.63844 18.4162C5.21257 17.9911 4.89542 17.4695 4.71386 16.8958C4.53231 16.3221 4.49169 15.713 4.59544 15.1202C4.10297 14.7745 3.70106 14.3151 3.42377 13.781C3.14647 13.247 3.00195 12.654 3.00244 12.0522C3.00244 10.7842 3.63244 9.66225 4.59544 8.98425C4.49169 8.39148 4.53231 7.78244 4.71386 7.2087C4.89542 6.63496 5.21257 6.11342 5.63844 5.68825C6.06366 5.26244 6.5852 4.94534 7.15893 4.76379C7.73265 4.58224 8.34167 4.54158 8.93444 4.64525C9.28029 4.15283 9.73966 3.75097 10.2737 3.47369C10.8077 3.1964 11.4007 3.05184 12.0024 3.05225C13.2704 3.05225 14.3924 3.68225 15.0704 4.64525C15.6632 4.54158 16.2722 4.58224 16.846 4.76379C17.4197 4.94534 17.9412 5.26244 18.3664 5.68825C18.7922 6.11347 19.1093 6.63501 19.2909 7.20873C19.4725 7.78246 19.5131 8.39148 19.4094 8.98425C19.9019 9.33003 20.3038 9.7894 20.5811 10.3234C20.8584 10.8575 21.0029 11.4505 21.0024 12.0522Z" stroke="#B28451" stroke-width="1.5" stroke-linecap="round" stroke-linejoin="round"/>
</svg>
